<?xml version="1.0" standalone="no"?>
<!DOCTYPE svg PUBLIC "-//W3C//DTD SVG 20010904//EN"
 "http://www.w3.org/TR/2001/REC-SVG-20010904/DTD/svg10.dtd">
<svg version="1.0" xmlns="http://www.w3.org/2000/svg"
 width="862.000000pt" height="913.000000pt" viewBox="0 0 862.000000 913.000000"
 preserveAspectRatio="xMidYMid meet">

<g transform="translate(0.000000,913.000000) scale(0.100000,-0.100000)"
fill="#000000" stroke="none">
<path d="M3032 8935 c-7 -14 -12 -37 -12 -50 0 -19 -10 -30 -42 -46 -117 -59
-266 -181 -340 -278 -58 -77 -141 -243 -158 -317 l-11 -51 -34 34 c-40 40 -61
41 -112 4 -58 -42 -70 -77 -79 -219 l-7 -123 -33 -26 c-46 -34 -44 -63 4 -94
l37 -24 5 -190 c3 -105 4 -269 2 -366 l-3 -175 -29 -18 c-24 -14 -30 -24 -30
-51 0 -28 6 -37 30 -50 17 -9 31 -23 31 -33 6 -82 -4 -489 -12 -504 -8 -14 -7
-28 0 -46 7 -18 12 -220 13 -592 l3 -565 -77 -53 c-75 -51 -78 -55 -78 -92 0
-32 7 -45 42 -79 l43 -40 3 -955 3 -955 -77 -73 c-81 -78 -94 -109 -61 -146 8
-9 19 -30 23 -45 l7 -29 -134 6 c-74 4 -289 11 -479 17 -639 19 -1371 47
-1376 52 -3 3 -6 1055 -7 2339 -2 1866 1 2351 11 2421 45 308 163 547 372 758
182 183 363 283 626 346 60 14 159 17 769 20 385 2 710 5 723 8 15 4 22 13 22
30 0 13 -4 27 -10 30 -5 3 -319 6 -698 5 -766 0 -791 -2 -982 -66 -454 -152
-792 -553 -886 -1050 -18 -95 -19 -217 -19 -3249 0 -2935 1 -3156 17 -3241 54
-282 180 -518 389 -724 193 -191 432 -320 697 -375 65 -13 445 -15 3197 -15
3036 0 3127 1 3222 19 524 103 955 540 1067 1083 14 70 16 392 16 3246 0 3460
4 3234 -56 3430 -34 113 -130 299 -208 402 -114 152 -289 302 -456 393 -89 48
-236 101 -355 128 l-100 23 -1740 3 c-957 2 -1771 0 -1810 -4 -55 -6 -70 -12
-73 -26 -10 -50 -109 -47 1798 -47 1548 0 1789 -2 1866 -15 443 -76 827 -398
984 -826 66 -179 73 -234 77 -669 l4 -395 -31 47 c-50 75 -152 162 -243 207
-113 56 -197 73 -330 69 l-108 -3 -32 55 c-143 250 -534 376 -782 253 -27 -14
-57 -31 -65 -39 -13 -11 -29 -8 -103 22 -124 50 -209 65 -361 65 -152 -1 -274
-19 -368 -54 l-67 -26 -326 2 c-239 1 -325 5 -325 14 0 20 57 60 107 76 76 25
146 30 227 16 96 -15 106 -8 106 70 0 108 80 225 191 279 112 54 228 53 336
-5 82 -43 107 -37 117 27 10 62 60 153 114 207 145 144 380 175 544 71 51 -32
113 -95 130 -133 17 -38 41 -39 105 -3 51 29 66 33 133 33 167 -1 300 -114
336 -286 8 -40 13 -83 10 -94 -3 -12 0 -30 7 -40 12 -15 31 -18 128 -19 105
-1 118 -3 163 -28 58 -33 82 -35 91 -7 16 50 -71 97 -207 112 -94 11 -99 12
-104 37 -20 99 -42 159 -76 211 -48 71 -93 110 -177 152 -54 26 -78 32 -155
35 -74 3 -101 0 -145 -17 l-54 -20 -21 26 c-12 15 -25 32 -31 39 -5 7 -37 31
-69 53 -224 155 -573 87 -725 -140 -23 -34 -41 -65 -41 -69 0 -4 -7 -23 -15
-43 l-14 -35 -66 24 c-165 60 -383 3 -485 -126 -43 -54 -87 -141 -95 -188 l-6
-40 -112 -5 c-120 -5 -190 -23 -244 -64 -69 -51 -110 -135 -79 -165 11 -12 69
-16 302 -21 158 -4 289 -9 291 -11 2 -2 -20 -28 -49 -57 -30 -30 -71 -82 -93
-117 -32 -53 -42 -62 -59 -57 -50 16 -202 17 -270 1 -131 -31 -309 -144 -369
-235 -41 -62 -63 -102 -76 -142 -10 -32 -18 -38 -59 -49 -116 -29 -266 -138
-332 -240 -52 -81 -80 -185 -80 -295 0 -51 -4 -95 -9 -97 -18 -6 -99 -137
-117 -190 -14 -39 -19 -81 -19 -158 0 -92 3 -112 26 -161 33 -69 109 -146 183
-184 64 -33 63 -28 26 -130 -18 -50 -21 -76 -18 -155 3 -81 8 -105 35 -162 40
-84 102 -147 185 -186 71 -35 181 -56 262 -50 l53 3 12 -59 c29 -139 121 -255
254 -319 82 -40 135 -54 233 -63 137 -13 317 47 413 137 37 34 46 38 53 25 88
-158 295 -253 493 -226 47 7 97 23 154 51 l85 42 60 -23 c35 -12 96 -24 144
-27 l82 -6 79 -106 c231 -311 314 -525 340 -876 6 -77 11 -150 11 -162 0 -19
-12 -24 -107 -47 -244 -58 -556 -125 -563 -121 -4 2 -10 27 -13 55 -17 140
-134 248 -282 258 -62 4 -74 9 -107 38 -46 41 -115 77 -193 99 -71 21 -171 16
-257 -14 -64 -22 -159 -81 -186 -115 -15 -19 -30 -24 -100 -28 -197 -14 -344
-147 -346 -315 l-1 -61 -40 -6 c-105 -17 -208 -98 -258 -206 -25 -53 -31 -77
-31 -138 l-1 -74 -185 6 c-102 3 -229 9 -282 12 l-98 6 0 191 c0 187 0 191 25
223 33 43 47 83 41 110 -3 12 -49 59 -101 104 l-95 82 0 948 0 948 40 53 c78
104 72 130 -45 190 l-90 46 -3 869 -2 869 30 41 c40 56 40 89 0 103 l-30 10 0
336 c0 236 3 343 12 358 6 12 28 43 50 70 56 72 48 107 -24 107 -21 0 -39 1
-39 3 -1 1 -4 63 -8 137 -6 117 -10 141 -31 180 -46 83 -128 112 -197 70 -43
-26 -56 -53 -62 -130 -5 -49 -10 -66 -22 -68 -13 -2 -18 9 -24 55 -17 140 -96
301 -200 409 -75 77 -141 119 -228 145 -66 21 -67 22 -73 61 -12 70 -26 79
-144 88 -58 5 -137 9 -176 10 -66 0 -72 -2 -82 -25z m241 -61 c78 -5 87 -8 87
-26 0 -19 -4 -19 -77 -12 -162 15 -178 18 -181 37 -3 16 2 18 40 13 23 -3 82
-8 131 -12z m12 -113 c171 -18 184 -20 255 -56 100 -50 191 -143 247 -250 45
-89 73 -172 73 -221 0 -31 -2 -33 -32 -28 -18 2 -196 29 -395 59 -199 30 -364
55 -366 55 -2 0 -7 25 -10 55 -7 65 -43 134 -88 166 -29 20 -30 24 -24 68 7
49 54 132 88 156 27 19 33 19 252 -4z m-411 -132 c-13 -51 -22 -68 -47 -84
-62 -41 -86 -99 -87 -206 l0 -56 -95 -74 c-53 -41 -100 -75 -105 -77 -15 -5
-12 9 16 100 31 99 87 207 149 288 41 54 175 183 182 176 2 -1 -4 -32 -13 -67z
m66 -159 c31 -31 40 -64 40 -141 0 -47 4 -71 13 -73 6 -2 140 -23 297 -46 157
-23 370 -55 474 -71 208 -32 266 -35 284 -17 7 7 12 43 12 93 0 95 12 118 55
113 20 -2 37 -14 52 -37 21 -31 23 -46 23 -152 0 -110 -1 -119 -19 -119 -49 0
-1184 164 -1301 189 -33 6 -36 10 -49 66 -12 48 -12 70 -2 119 7 34 20 69 28
79 22 23 68 22 93 -3z m-180 -293 c0 -21 -470 -381 -482 -369 -6 6 56 62 184
164 274 219 298 235 298 205z m-365 -27 c8 -16 18 -49 21 -72 5 -41 4 -44 -40
-80 -24 -21 -48 -38 -52 -38 -14 0 2 168 19 194 22 34 33 33 52 -4z m800 -70
c233 -33 848 -121 1028 -147 42 -6 43 -9 18 -43 l-19 -24 -284 38 c-405 54
-1049 145 -1075 151 -19 4 -23 12 -23 41 0 35 1 36 33 30 17 -3 163 -24 322
-46z m-425 -37 c0 -25 -25 -46 -204 -175 -225 -163 -239 -172 -234 -139 2 15
70 72 213 181 116 88 213 160 218 160 4 0 7 -12 7 -27z m246 -88 c65 -9 310
-42 544 -75 234 -33 466 -64 515 -71 50 -6 100 -15 113 -20 l22 -9 0 -320 c0
-176 -3 -320 -6 -320 -13 0 -734 92 -899 115 -99 14 -243 33 -320 43 l-140 18
-3 333 -2 334 28 -6 c16 -3 82 -13 148 -22z m-248 -342 l-3 -298 -210 -127
c-115 -70 -213 -127 -217 -127 -5 -1 -8 122 -8 273 l0 274 138 98 c75 54 171
121 212 151 41 29 78 53 82 53 5 0 7 -134 6 -297z m3904 -277 c83 -16 146 -39
202 -74 53 -33 74 -31 129 11 66 50 135 70 242 71 110 0 177 -15 275 -62 102
-50 186 -134 235 -236 20 -42 42 -76 48 -76 7 0 34 7 61 15 103 31 260 9 387
-55 90 -46 202 -163 254 -264 l40 -79 3 -1009 c2 -979 2 -1009 -17 -1046 -27
-51 -77 -97 -136 -123 -87 -39 -253 -37 -309 4 -17 13 -17 16 8 65 32 62 34
98 6 107 -27 9 -34 3 -68 -58 -50 -88 -163 -177 -227 -177 -23 0 -25 4 -25 42
0 23 18 134 40 247 55 277 71 308 220 426 150 118 241 234 295 378 29 78 31
109 9 128 -24 20 -44 1 -63 -61 -27 -87 -91 -199 -150 -263 -56 -61 -218 -193
-226 -185 -3 3 11 90 30 194 19 104 38 223 42 265 6 73 5 77 -17 84 -37 12
-49 -13 -65 -136 -26 -203 -53 -319 -145 -634 -65 -221 -140 -534 -140 -583 0
-56 -16 -34 -39 51 -22 82 -92 291 -170 507 -73 202 -124 471 -107 561 7 40
68 142 146 247 45 61 60 73 117 98 116 49 193 125 232 230 21 55 14 94 -17 94
-24 0 -35 -14 -52 -68 -26 -82 -116 -161 -224 -198 -42 -15 -53 -26 -114 -115
-37 -55 -69 -94 -71 -87 -2 6 2 63 9 125 l12 114 -46 46 c-50 49 -78 95 -107
178 -19 55 -37 72 -64 61 -41 -15 5 -151 89 -263 l46 -63 -10 -92 c-21 -206
-22 -359 -6 -492 9 -71 19 -133 22 -137 32 -53 -217 188 -302 291 -151 183
-264 423 -308 650 -21 107 -31 130 -55 130 -50 0 -49 -45 5 -246 13 -51 24
-97 24 -104 0 -18 -185 -6 -259 16 -94 28 -171 90 -208 169 -14 31 -24 40 -43
40 -33 0 -37 -31 -12 -88 64 -145 258 -232 477 -214 l71 6 37 -74 c83 -168
217 -361 362 -520 118 -130 162 -189 206 -277 53 -105 52 -107 -20 -97 -92 13
-143 36 -249 114 -34 24 -56 24 -66 -1 -10 -26 6 -45 77 -95 81 -57 200 -99
280 -99 l52 0 48 -167 c60 -209 84 -313 102 -428 13 -86 12 -111 -3 -89 -52
78 -179 230 -298 357 -229 244 -299 324 -375 430 -86 121 -189 315 -274 518
-71 170 -82 187 -114 170 -27 -15 -27 -41 3 -99 13 -26 58 -123 99 -217 70
-157 159 -333 202 -398 10 -15 16 -29 14 -32 -3 -2 -79 38 -169 88 -187 105
-247 155 -395 333 -51 61 -126 140 -166 175 -165 143 -214 199 -263 302 -48
99 -68 116 -96 82 -15 -18 -2 -60 48 -152 36 -65 103 -139 278 -303 62 -59
184 -208 184 -226 0 -14 -314 5 -400 25 -147 33 -267 85 -357 152 -55 41 -87
49 -97 23 -11 -29 23 -63 129 -126 179 -108 387 -158 651 -158 l124 0 102 -76
c57 -42 104 -80 106 -85 5 -12 -74 -67 -144 -100 -140 -67 -346 -55 -513 30
-46 24 -81 20 -81 -8 0 -38 92 -87 225 -121 176 -45 365 -6 514 106 55 41 78
53 95 48 42 -13 213 -133 295 -207 88 -80 251 -256 251 -271 0 -16 -80 2 -143
32 -66 32 -78 31 -122 -9 -60 -54 -195 -84 -314 -69 -141 18 -244 89 -298 206
-13 30 -34 59 -45 65 -18 10 -27 3 -80 -55 -176 -195 -517 -208 -707 -26 -66
63 -108 150 -117 242 -4 39 -11 68 -18 69 -6 0 -69 1 -141 2 -117 2 -136 5
-185 28 -111 52 -189 164 -198 281 -5 72 9 134 51 216 41 82 40 85 -76 138
-67 31 -135 93 -160 146 -64 136 -30 308 85 431 42 45 48 56 43 82 -16 82 -16
115 -1 176 25 95 52 145 124 220 71 76 148 121 240 139 64 14 82 24 82 50 0
36 72 159 122 210 114 115 250 175 393 175 51 0 99 -7 132 -18 68 -24 83 -15
123 68 77 161 243 274 456 310 106 18 286 18 376 1z m-3552 -131 c146 -20 420
-56 610 -80 442 -57 500 -66 500 -76 0 -15 -34 -11 -695 71 -351 44 -652 80
-667 80 -21 0 -28 5 -28 20 0 11 3 20 8 20 4 0 126 -16 272 -35z m-352 0 c-4
-18 -437 -267 -458 -262 -13 2 60 48 385 240 68 40 78 43 73 22z m357 -105
c126 -16 408 -53 625 -80 217 -28 410 -53 428 -56 l32 -6 0 -229 0 -229 -37 5
c-21 3 -98 14 -171 24 -73 10 -134 20 -135 22 -2 2 -10 41 -19 87 -30 148 -87
229 -204 286 -128 63 -253 40 -356 -64 -60 -62 -88 -125 -88 -202 0 -45 14
-43 -190 -23 -80 8 -151 15 -157 15 -10 0 -13 55 -13 240 l0 240 27 0 c15 0
131 -13 258 -30z m-355 -234 l0 -234 -46 -26 c-26 -14 -48 -26 -49 -26 -1 0
-5 42 -9 94 -7 102 -25 159 -55 176 -57 30 -118 -9 -152 -98 -16 -42 -23 -89
-28 -177 l-6 -119 -40 -23 c-22 -12 -43 -23 -47 -23 -5 0 -8 101 -8 225 l0
225 33 21 c49 31 391 218 400 219 4 0 7 -105 7 -234z m854 -14 c87 -47 136
-125 152 -243 l6 -47 -48 5 c-27 3 -50 7 -52 8 -1 1 -7 31 -13 66 -14 87 -39
139 -96 200 -41 44 -44 51 -23 44 14 -4 47 -19 74 -33z m-520 -303 l89 -12 -5
-361 c-3 -199 -2 -413 1 -476 l6 -115 55 -7 c547 -68 576 -70 590 -48 6 9 10
203 10 478 0 433 1 462 18 462 9 0 85 -9 167 -20 83 -11 156 -20 163 -20 9 0
12 -125 12 -590 l0 -590 -30 0 c-17 0 -182 16 -368 35 -185 19 -470 49 -632
65 -162 17 -305 35 -317 40 -19 8 -23 17 -23 55 0 54 -20 51 205 28 94 -9 178
-14 188 -10 20 7 23 40 5 54 -7 6 -87 18 -178 27 -234 24 -220 19 -220 71 0
24 3 46 8 48 4 3 45 -2 92 -9 47 -8 91 -12 98 -9 13 5 17 51 4 59 -5 3 -49 11
-99 17 l-90 12 -6 246 c-4 135 -7 324 -7 420 l0 174 88 -6 c48 -3 127 -12 176
-18z m274 -31 c-2 -18 -6 -32 -10 -30 -5 1 -28 2 -53 2 -43 0 -45 1 -45 30 0
30 0 30 56 30 l55 0 -3 -32z m-610 -550 l-3 -572 -25 -13 c-14 -7 -59 -29
-100 -47 -216 -100 -296 -134 -302 -129 -5 2 -8 253 -8 557 l0 552 39 22 c21
12 44 22 50 22 8 0 11 -118 11 -419 0 -323 3 -421 13 -429 14 -11 205 59 219
80 4 7 8 213 8 457 -1 244 1 445 2 446 8 7 84 44 91 45 4 0 6 -257 5 -572z
m758 559 c1 -1 0 -14 -3 -29 -4 -22 -11 -28 -32 -28 -36 0 -38 4 -33 41 4 29
7 31 35 25 17 -3 32 -7 33 -9z m184 -31 c56 -10 65 -15 68 -35 3 -18 0 -22
-15 -17 -10 3 -51 8 -90 12 -68 6 -73 8 -73 30 0 28 12 29 110 10z m-410 -85
c0 -6 -4 -13 -10 -16 -5 -3 -10 1 -10 9 0 9 5 16 10 16 6 0 10 -4 10 -9z m214
-21 c33 -5 66 -16 74 -24 8 -8 18 -50 23 -97 8 -70 36 -211 54 -269 4 -13 -19
-15 -170 -15 -96 0 -175 2 -175 5 0 3 7 32 15 66 8 33 21 115 29 182 17 134
18 139 50 152 28 11 31 11 100 0z m265 -202 c-1 -101 -4 -194 -8 -208 -7 -23
-9 -21 -24 25 -30 89 -57 228 -57 298 l0 67 45 0 45 0 -1 -182z m-319 -313 c0
-39 3 -45 24 -51 34 -8 43 0 51 46 6 38 8 40 43 40 45 0 101 -15 127 -34 19
-14 19 -15 1 -35 -26 -28 -106 -51 -180 -51 -69 0 -236 27 -250 40 -5 5 -6 20
-2 33 8 32 64 56 134 56 l52 1 0 -45z m307 -282 c-3 -2 -23 -1 -46 3 l-41 7 0
63 c0 60 2 64 28 78 16 8 35 22 43 32 12 15 14 6 17 -81 1 -54 1 -99 -1 -102z
m-731 -303 c98 -11 316 -33 484 -50 582 -57 760 -82 819 -115 25 -14 23 -15
-34 -10 -182 16 -1502 147 -1512 150 -7 3 -13 14 -13 25 0 26 22 26 256 0z
m-338 -32 c-2 -6 -96 -53 -209 -103 -112 -50 -221 -99 -242 -109 -56 -27 -56
-13 0 20 61 36 424 203 441 204 8 0 12 -5 10 -12z m257 -83 c72 -8 274 -28
450 -45 176 -17 450 -44 609 -60 159 -17 297 -30 307 -30 22 0 26 -28 5 -36
-12 -4 -293 21 -626 56 -52 5 -264 26 -470 45 -451 42 -440 40 -440 65 0 24
-1 24 165 5z m-245 -29 c0 -8 -45 -32 -112 -59 -62 -25 -162 -66 -223 -92
-142 -59 -170 -53 -40 8 55 26 152 72 215 101 118 56 160 67 160 42z m576
-121 c258 -25 593 -58 744 -73 l275 -28 3 -313 2 -313 -42 2 c-74 3 -78 2 -78
-24 0 -28 16 -36 76 -36 l44 0 0 -80 0 -80 -62 0 c-71 0 -92 -9 -86 -36 3 -16
17 -21 76 -27 l72 -9 0 -475 0 -476 -52 7 c-29 3 -79 6 -110 6 l-58 0 0 743
c0 492 -4 763 -11 803 -13 70 -61 166 -100 199 -16 12 -49 31 -74 41 -45 17
-47 17 -90 -4 -81 -39 -123 -86 -147 -165 -21 -70 -21 -72 -14 -836 l7 -766
-78 3 -78 3 0 802 0 802 -23 57 c-25 62 -71 109 -146 149 -43 22 -44 23 -91 5
-26 -10 -67 -37 -90 -60 -77 -74 -75 -43 -75 -938 l0 -788 -52 1 c-107 1 -220
16 -229 30 -5 8 -9 155 -9 327 l0 312 85 0 c83 0 85 0 85 24 0 34 -14 40 -95
46 l-70 5 -3 278 -2 277 64 0 c51 0 65 3 70 17 10 25 -14 42 -74 50 -58 9 -68
20 -56 69 6 23 10 24 90 24 67 0 85 3 90 16 13 34 -10 49 -96 59 l-83 10 -3
190 c-2 189 -1 215 16 215 5 0 220 -20 478 -45z m-560 -182 c-2 -115 -5 -544
-5 -956 l-1 -747 -22 -9 c-13 -4 -37 -13 -55 -19 l-32 -10 -3 811 c-3 733 -5
816 -20 849 -35 77 -101 86 -157 22 -59 -67 -61 -85 -61 -660 l0 -521 -39 -7
c-22 -3 -46 -9 -55 -12 -15 -6 -16 54 -16 639 l0 644 93 38 c50 21 148 62 217
91 69 29 133 53 143 53 16 1 17 -13 13 -206z m590 -4 c11 -19 -13 -34 -31 -19
-13 11 -13 15 -3 21 18 12 26 11 34 -2z m-62 -48 c15 -16 15 -19 1 -31 -13
-11 -19 -11 -32 3 -15 15 -12 47 5 47 5 0 16 -8 26 -19z m130 -20 c19 -21 14
-41 -9 -41 -17 0 -38 36 -30 50 9 15 20 12 39 -9z m506 11 c0 -19 -23 -32 -37
-21 -20 17 -15 29 12 29 14 0 25 -4 25 -8z m-690 -69 c0 -14 -27 -30 -36 -20
-3 2 -2 17 2 31 5 21 9 24 20 15 8 -6 14 -18 14 -26z m618 -10 c-15 -18 -37
-16 -45 3 -4 10 1 22 12 30 15 12 20 11 31 -4 9 -12 9 -21 2 -29z m-493 17
c18 -20 18 -21 -1 -35 -17 -12 -21 -12 -38 5 -16 16 -17 22 -6 34 16 21 23 20
45 -4z m629 2 c15 -18 15 -20 -2 -35 -18 -16 -20 -16 -37 3 -14 16 -15 22 -5
35 16 19 23 19 44 -3z m-684 -81 c0 -3 -9 -12 -20 -18 -17 -11 -21 -10 -30 8
-9 15 -8 24 1 35 10 13 14 12 30 -2 11 -10 19 -20 19 -23z m610 -15 c-20 -20
-20 -20 -34 -1 -13 18 -13 22 1 38 15 16 17 16 35 0 18 -16 18 -17 -2 -37z
m-124 33 c3 -6 -1 -18 -10 -27 -15 -15 -16 -14 -16 11 0 27 13 36 26 16z
m-356 -15 c11 -12 10 -18 -3 -31 -15 -15 -18 -15 -37 2 -15 14 -17 21 -9 32
15 17 34 17 49 -3z m603 -6 c4 -12 4 -24 1 -27 -8 -9 -37 27 -30 38 11 17 23
13 29 -11z m-813 -43 c10 -12 10 -18 0 -30 -19 -23 -30 -18 -30 15 0 33 11 38
30 15z m625 -5 c18 -20 18 -21 -1 -35 -24 -18 -29 -18 -43 -1 -9 11 -9 19 1
35 16 26 20 26 43 1z m-485 -6 c11 -12 10 -18 -3 -31 -15 -15 -18 -15 -37 2
-15 14 -17 21 -9 32 15 17 34 17 49 -3z m630 1 c10 -12 10 -18 0 -30 -7 -8
-18 -15 -25 -15 -7 0 -18 7 -25 15 -10 12 -10 18 0 30 7 8 18 15 25 15 7 0 18
-7 25 -15z m-520 -21 c0 -22 -2 -25 -15 -14 -12 10 -13 16 -4 26 16 20 19 18
19 -12z m-176 -47 c8 -13 7 -21 -6 -34 -16 -16 -19 -16 -38 2 -19 17 -19 19
-3 37 19 21 32 20 47 -5z m484 2 c10 -13 9 -19 -3 -29 -13 -11 -15 -8 -15 20
0 19 1 31 3 29 1 -2 8 -11 15 -20z m132 -33 c-19 -19 -21 -19 -37 -3 -16 15
-16 18 2 37 17 19 19 19 37 3 18 -16 18 -17 -2 -37z m-480 28 c11 -12 10 -18
-3 -32 -16 -15 -18 -15 -34 0 -13 14 -14 20 -3 32 7 9 16 16 20 16 4 0 13 -7
20 -16z m606 -41 c-3 -3 -13 2 -22 12 -17 17 -17 18 2 32 17 13 19 12 22 -12
2 -15 1 -29 -2 -32z m-816 -18 c10 -12 10 -18 0 -30 -19 -23 -30 -18 -30 15 0
33 11 38 30 15z m137 -42 c-15 -16 -18 -16 -37 2 -19 17 -19 19 -3 37 16 18
17 18 37 -2 19 -19 19 -21 3 -37z m493 23 c0 -7 -5 -17 -12 -24 -9 -9 -16 -8
-30 5 -17 15 -17 17 -2 35 13 14 20 15 31 7 7 -6 13 -17 13 -23z m130 -20
c-19 -19 -21 -19 -37 -3 -16 15 -16 18 2 37 17 19 19 19 37 3 18 -16 18 -17
-2 -37z m4600 -608 l0 -603 -148 -33 c-81 -19 -219 -51 -307 -72 -88 -21 -174
-41 -191 -45 l-32 -6 -7 53 c-14 115 -47 311 -77 468 -31 154 -33 179 -33 380
0 222 8 308 28 315 7 2 37 11 68 19 32 9 80 31 108 50 l51 35 68 -32 c59 -28
77 -31 157 -32 74 0 103 5 165 28 41 15 89 38 105 52 17 13 33 24 38 25 4 0 7
-271 7 -602z m-5295 572 c16 -18 17 -22 4 -35 -12 -12 -17 -11 -38 6 -19 16
-21 22 -11 34 16 20 23 19 45 -5z m149 -2 c14 -20 14 -24 -1 -40 -16 -18 -17
-18 -40 4 -21 20 -22 23 -6 40 21 23 29 23 47 -4z m345 8 c9 -10 8 -16 -4 -26
-13 -11 -15 -8 -15 14 0 30 3 32 19 12z m131 -40 c-19 -19 -21 -19 -37 -3 -16
15 -16 18 2 37 17 19 19 19 37 3 18 -16 18 -17 -2 -37z m126 -14 c-4 -3 -13 3
-20 14 -13 17 -12 21 2 38 16 18 17 17 20 -14 2 -17 1 -35 -2 -38z m-816 -46
c-7 -9 -16 -16 -20 -16 -13 0 -21 31 -14 53 6 19 6 19 27 -1 17 -17 18 -23 7
-36z m144 26 c15 -18 15 -20 -2 -35 -18 -16 -20 -16 -37 3 -14 16 -15 22 -5
35 16 19 23 19 44 -3z m480 -5 c8 -12 7 -21 -5 -32 -14 -14 -17 -14 -34 5 -15
16 -16 22 -5 35 15 18 29 16 44 -8z m156 -16 c0 -3 -10 -12 -21 -19 -18 -12
-24 -11 -37 2 -14 14 -14 17 3 36 17 19 19 19 37 4 10 -10 18 -20 18 -23z
m-710 -47 c11 -12 10 -18 -3 -31 -15 -15 -18 -15 -37 2 -15 14 -17 21 -9 32
15 17 34 17 49 -3z m144 -2 c15 -18 15 -20 -2 -35 -18 -16 -20 -16 -37 3 -14
16 -15 22 -5 35 16 19 23 19 44 -3z m345 4 c9 -10 8 -16 -4 -26 -13 -11 -15
-8 -15 14 0 30 3 32 19 12z m141 -20 c0 -7 -5 -17 -12 -24 -9 -9 -16 -8 -30 5
-17 15 -17 17 -2 35 13 14 20 15 31 7 7 -6 13 -17 13 -23z m120 -6 c0 -33 -11
-38 -30 -15 -10 12 -10 18 0 30 19 23 30 18 30 -15z m-820 -35 c10 -12 10 -18
0 -30 -19 -23 -30 -18 -30 15 0 33 11 38 30 15z m144 -8 c8 -13 7 -21 -6 -34
-16 -16 -19 -16 -38 2 -19 17 -19 19 -3 37 19 21 32 20 47 -5z m480 -5 c15
-18 15 -20 -4 -37 -16 -14 -22 -15 -35 -5 -18 15 -19 32 -3 48 16 16 22 15 42
-6z m140 0 c15 -18 15 -20 -2 -35 -18 -16 -20 -16 -37 3 -14 16 -15 22 -5 35
16 19 23 19 44 -3z m-697 -93 c-15 -24 -20 -24 -42 1 -18 20 -18 21 1 34 16
13 21 12 36 -1 14 -12 15 -19 5 -34z m147 32 c16 -17 16 -20 0 -35 -19 -19
-33 -17 -48 6 -7 12 -6 21 3 32 17 21 24 20 45 -3z m479 -9 c13 -14 14 -21 5
-30 -16 -16 -33 -15 -48 3 -10 12 -10 18 0 30 16 19 23 19 43 -3z m-141 -24
c-9 -9 -12 -7 -12 12 0 19 3 21 12 12 9 -9 9 -15 0 -24z m268 2 c0 -34 -5 -37
-27 -15 -12 12 -13 19 -3 30 19 23 30 18 30 -15z m-820 -64 c-20 -25 -30 -19
-30 21 l0 37 22 -21 c18 -18 19 -24 8 -37z m141 23 c9 -17 8 -25 -5 -37 -14
-14 -17 -14 -36 3 -19 17 -19 19 -4 37 22 23 31 23 45 -3z m479 -5 c11 -12 10
-18 -3 -32 -16 -15 -18 -15 -34 0 -13 14 -14 20 -3 32 7 9 16 16 20 16 4 0 13
-7 20 -16z m144 -2 c15 -18 15 -20 -4 -37 -16 -14 -22 -15 -35 -5 -18 15 -19
26 -2 45 16 19 21 18 41 -3z m-690 -60 c15 -18 15 -20 -4 -37 -20 -18 -21 -18
-42 3 -22 21 -22 22 -3 37 26 19 29 19 49 -3z m134 -3 c10 -16 10 -24 1 -35
-14 -17 -19 -17 -43 1 -19 14 -19 15 -1 35 23 25 27 25 43 -1z m355 -3 c3 -8
-1 -20 -9 -26 -12 -10 -14 -8 -14 14 0 28 14 35 23 12z m127 -2 c11 -12 10
-18 -3 -32 -16 -15 -18 -15 -34 0 -13 14 -14 20 -3 32 7 9 16 16 20 16 4 0 13
-7 20 -16z m130 -19 c0 -27 -12 -32 -29 -12 -8 10 -7 17 1 25 19 19 28 14 28
-13z m-810 -60 c0 -18 -32 -28 -42 -13 -9 16 -10 22 -2 43 6 14 8 14 25 -1 11
-9 19 -23 19 -29z m130 20 c10 -13 9 -19 -5 -35 -17 -19 -19 -19 -37 -3 -17
15 -17 17 -2 35 21 22 28 22 44 3z m484 -3 c15 -18 15 -20 -4 -37 -17 -15 -22
-16 -37 -4 -10 7 -20 15 -22 16 -6 4 30 43 39 43 4 0 14 -8 24 -18z m140 -10
c15 -18 15 -20 -4 -37 -11 -10 -21 -16 -23 -14 -1 2 -9 12 -16 22 -11 14 -11
20 -1 32 16 19 23 19 44 -3z m-694 -58 c11 -12 10 -18 -3 -31 -15 -15 -18 -15
-37 2 -15 14 -17 21 -9 32 15 17 34 17 49 -3z m139 -3 c19 -19 19 -20 0 -37
-18 -16 -20 -16 -39 1 -19 17 -19 19 -4 37 21 22 20 22 43 -1z m485 -9 c15
-18 15 -20 -2 -35 -18 -16 -20 -16 -37 3 -14 16 -15 22 -5 35 16 19 23 19 44
-3z m-131 2 c8 -8 -3 -34 -14 -34 -5 0 -9 9 -9 20 0 19 11 26 23 14z m253 -24
c0 -21 -11 -26 -21 -10 -7 11 2 30 13 30 4 0 8 -9 8 -20z m-820 -24 c19 -20
18 -33 -5 -46 -22 -11 -30 1 -23 37 5 27 8 28 28 9z m141 -12 c14 -14 14 -17
-1 -32 -15 -15 -17 -15 -32 0 -17 17 -13 48 6 48 6 0 19 -7 27 -16z m482 -8
c13 -16 4 -46 -14 -46 -7 0 -18 7 -25 15 -10 12 -10 18 0 30 15 19 24 19 39 1z
m148 -43 c-15 -16 -18 -16 -37 2 -19 17 -19 19 -3 37 16 18 17 18 37 -2 19
-19 19 -21 3 -37z m-697 -19 c11 -12 11 -18 -2 -30 -16 -16 -48 -9 -48 10 0
13 20 36 31 36 4 0 12 -7 19 -16z m144 -6 c14 -23 -18 -55 -39 -38 -18 15 -19
32 -3 48 15 15 28 11 42 -10z m345 -2 c9 -10 8 -16 -4 -26 -13 -11 -15 -8 -15
14 0 30 3 32 19 12z m141 -1 c10 -12 10 -18 0 -30 -16 -19 -39 -19 -46 0 -6
15 11 45 26 45 4 0 13 -7 20 -15z m120 -25 c0 -11 -4 -20 -10 -20 -5 0 -10 2
-10 4 0 2 -3 11 -6 20 -4 11 -1 16 10 16 9 0 16 -8 16 -20z m-820 -25 c10 -12
10 -18 0 -30 -7 -8 -16 -15 -20 -15 -12 0 -20 28 -14 45 4 8 10 15 14 15 4 0
13 -7 20 -15z m144 -13 c15 -18 15 -20 -4 -37 -16 -14 -22 -15 -35 -5 -18 15
-19 32 -3 48 16 16 22 15 42 -6z m486 -36 c-16 -20 -34 -20 -50 -1 -10 13 -9
19 5 36 19 20 19 20 39 0 16 -17 17 -23 6 -35z m140 29 c10 -12 10 -18 0 -30
-7 -8 -18 -15 -25 -15 -7 0 -18 7 -25 15 -10 12 -10 18 0 30 7 8 18 15 25 15
7 0 18 -7 25 -15z m-530 -15 c0 -5 -2 -10 -4 -10 -3 0 -8 5 -11 10 -3 6 -1 10
4 10 6 0 11 -4 11 -10z m-166 -38 c15 -18 15 -20 -4 -37 -19 -17 -21 -17 -40
0 -19 17 -19 19 -4 37 10 10 20 18 24 18 4 0 14 -8 24 -18z m140 -15 c16 -25
-16 -56 -38 -37 -19 15 -20 32 -4 48 15 15 28 11 42 -11z m490 5 c15 -18 15
-20 -3 -36 -15 -14 -24 -15 -40 -6 -25 13 -26 18 -4 42 20 23 26 23 47 0z
m-140 -8 c7 -18 0 -34 -15 -34 -5 0 -9 11 -9 25 0 28 15 34 24 9z m256 -19 c0
-29 -12 -32 -31 -9 -10 13 -10 17 2 25 23 14 29 11 29 -16z m-1640 -239 l0
-244 -44 -11 c-25 -6 -50 -11 -55 -11 -8 0 -11 79 -11 244 l0 243 43 10 c23 6
48 11 55 12 9 1 12 -54 12 -243z m824 202 c7 -12 6 -21 -4 -33 -12 -14 -15
-14 -28 -2 -9 9 -11 23 -7 36 7 24 23 24 39 -1z m140 -7 c17 -19 17 -20 -4
-31 -18 -10 -25 -9 -38 4 -13 12 -13 18 -2 30 16 21 23 20 44 -3z m487 -2 c9
-17 8 -25 -5 -37 -14 -14 -17 -14 -36 3 -19 17 -19 19 -4 37 22 23 31 23 45
-3z m135 -38 c-18 -20 -18 -20 -36 2 -17 20 -17 23 -2 40 15 17 17 17 36 -2
19 -20 19 -21 2 -40z m-698 -58 c-14 -13 -20 -14 -32 -3 -19 15 -20 32 -4 48
10 10 17 8 32 -8 19 -19 19 -21 4 -37z m146 0 c-16 -26 -31 -26 -45 -2 -10 19
-9 25 7 36 25 18 55 -8 38 -34z m352 8 c-13 -20 -26 -11 -26 16 0 25 1 26 16
11 9 -9 13 -21 10 -27z m138 16 c8 -13 7 -21 -6 -34 -16 -16 -19 -16 -38 2
-19 17 -19 19 -3 37 19 21 32 20 47 -5z m116 -19 c0 -30 0 -31 -20 -13 -15 14
-17 21 -9 32 19 22 29 15 29 -19z m-820 -33 c10 -12 10 -18 0 -30 -19 -23 -30
-18 -30 15 0 33 11 38 30 15z m140 -11 c11 -12 10 -18 -3 -32 -16 -15 -18 -15
-34 0 -13 14 -14 20 -3 32 7 9 16 16 20 16 4 0 13 -7 20 -16z m490 0 c11 -12
10 -18 -6 -35 -20 -20 -20 -20 -39 0 -14 17 -15 23 -5 36 16 19 34 19 50 -1z
m137 -41 c-16 -16 -18 -16 -39 5 -22 21 -22 22 -3 36 18 13 22 13 40 -5 18
-18 18 -20 2 -36z m-696 -19 c17 -16 17 -17 -4 -34 -20 -17 -24 -17 -40 -3
-16 15 -16 17 -1 35 21 22 23 22 45 2z m139 -10 c11 -13 10 -19 -7 -36 l-21
-20 -12 21 c-9 17 -9 26 1 37 15 18 23 18 39 -2z m356 -23 c-13 -20 -26 -11
-26 16 0 25 1 26 16 11 9 -9 13 -21 10 -27z m134 23 c11 -12 10 -18 -3 -32
-16 -15 -18 -15 -34 0 -13 14 -14 20 -3 32 7 9 16 16 20 16 4 0 13 -7 20 -16z
m120 -24 c0 -34 -7 -38 -26 -13 -9 13 -9 22 -2 30 17 21 28 15 28 -17z m-816
-42 c7 -12 6 -21 -3 -32 -21 -25 -31 -19 -31 20 0 37 14 42 34 12z m133 -35
c-15 -16 -18 -16 -37 2 -19 17 -19 19 -3 37 16 18 17 18 37 -2 19 -19 19 -21
3 -37z m497 39 c15 -18 15 -20 -4 -37 -19 -17 -21 -17 -40 0 -19 17 -19 19 -4
37 10 10 20 18 24 18 4 0 14 -8 24 -18z m133 -8 c17 -17 9 -44 -15 -52 -18 -6
-36 37 -21 54 15 18 17 18 36 -2z m2395 -31 c36 -17 85 -50 108 -73 42 -42 42
-42 99 -35 41 5 68 2 93 -8 48 -20 106 -73 129 -119 22 -42 34 -117 22 -134
-4 -5 -78 -26 -163 -44 l-155 -34 -435 -214 -435 -213 -220 7 c-121 4 -226 11
-232 17 -8 5 -13 33 -13 66 0 146 121 271 261 271 66 0 95 19 83 54 -30 92 -8
182 62 246 69 64 120 82 215 79 l79 -3 42 40 c107 102 189 136 313 131 65 -3
94 -9 147 -34z m-3092 -28 c17 -20 4 -35 -31 -35 -33 0 -36 6 -12 32 20 22 27
22 43 3z m142 -37 c-9 -9 -18 -9 -38 1 -26 11 -26 12 -8 32 18 20 18 20 38 -1
16 -15 18 -22 8 -32z m508 13 c0 -3 -10 -12 -21 -19 -18 -12 -24 -11 -37 2
-14 14 -14 17 3 36 17 19 19 19 37 4 10 -10 18 -20 18 -23z m-157 15 c6 -15
-1 -26 -15 -26 -4 0 -8 9 -8 20 0 23 15 27 23 6z m257 -28 c0 -30 -1 -31 -16
-16 -9 9 -14 24 -11 32 11 27 27 17 27 -16z m4540 -298 c0 -170 -2 -310 -5
-310 -2 0 -100 -13 -217 -29 -324 -45 -407 -55 -412 -50 -5 5 -27 360 -29 479
l-2 74 315 72 c173 39 323 72 333 73 16 1 17 -20 17 -309z m-5520 240 c63 -5
304 -19 535 -30 231 -11 501 -25 600 -30 l179 -11 52 -40 c29 -22 58 -47 65
-55 11 -13 9 -14 -12 -10 -13 3 -76 7 -139 11 -63 3 -243 12 -400 20 -157 8
-445 21 -640 30 -484 20 -550 25 -550 39 0 6 11 28 25 49 l26 37 72 0 c40 0
124 -5 187 -10z m-350 -5 c0 -3 -9 -15 -19 -27 -11 -13 -28 -34 -39 -47 -13
-17 -44 -31 -103 -48 -250 -68 -346 -93 -359 -93 -8 1 12 25 44 55 64 57 54
54 376 141 93 25 100 26 100 19z m4880 -407 c0 -139 -4 -258 -8 -264 -6 -9
-214 -41 -897 -135 -121 -16 -265 -36 -320 -44 -55 -8 -136 -17 -180 -20 l-80
-6 -152 64 -152 63 112 56 c322 162 632 309 670 318 23 5 231 53 462 105 231
53 436 99 455 104 19 5 47 9 63 10 l27 1 0 -252z m-4527 232 c106 -5 307 -14
447 -20 498 -20 915 -40 948 -46 33 -5 42 -18 18 -27 -7 -3 -198 3 -422 13
-225 10 -598 26 -829 35 -426 17 -475 21 -483 43 -5 15 61 15 321 2z m-393
-13 c0 -12 -432 -128 -472 -127 -15 0 -28 20 -14 20 3 0 80 21 173 46 290 80
313 84 313 61z m10 -165 l0 -79 -47 -9 c-49 -10 -70 -30 -59 -59 5 -15 14 -17
56 -11 l50 7 0 -331 0 -330 -39 0 c-60 0 -93 -16 -89 -43 3 -20 9 -22 66 -25
l62 -3 0 -123 0 -122 -70 -11 c-84 -13 -104 -26 -89 -55 10 -19 17 -20 85 -14
l74 7 0 -176 0 -175 -74 0 c-55 0 -77 -4 -87 -16 -23 -28 1 -49 62 -52 30 -1
64 -4 77 -7 l22 -5 0 -265 0 -266 -132 3 -133 3 -5 955 c-3 525 -6 956 -8 957
-1 1 -43 5 -92 9 l-91 7 3 95 3 96 200 51 c110 28 207 54 215 57 37 15 40 9
40 -70z m505 58 c138 -6 374 -15 525 -20 151 -6 367 -15 480 -20 113 -6 222
-10 243 -10 l37 0 0 -90 0 -90 -114 0 c-133 0 -169 -9 -164 -43 3 -21 9 -22
141 -31 l137 -8 0 -519 0 -518 -86 -3 c-91 -3 -115 -15 -101 -52 5 -13 22 -16
97 -16 l90 0 -2 -397 -3 -398 -167 -3 -168 -2 0 165 0 165 73 0 c80 0 112 14
105 46 -3 17 -13 19 -91 22 l-87 3 0 399 0 400 60 0 c50 0 61 3 71 21 17 33
-9 52 -73 53 l-53 1 -8 40 c-42 197 -74 270 -160 362 -85 90 -186 133 -317
133 -254 0 -438 -156 -488 -414 l-17 -86 -61 0 c-69 0 -97 -18 -77 -48 7 -13
28 -18 77 -20 l66 -3 0 -619 0 -620 -195 0 -195 0 0 268 0 267 158 3 c170 3
194 10 173 50 -15 29 -56 35 -200 31 l-126 -4 -3 52 -3 53 95 0 c84 0 97 2
106 19 19 36 3 51 -55 51 -29 0 -73 3 -99 6 l-46 7 0 528 0 529 84 0 c64 0 87
4 97 16 19 23 -1 48 -42 51 -19 2 -58 6 -86 9 l-53 5 0 41 0 40 138 -3 c75 -2
143 0 150 4 16 11 16 44 0 53 -7 5 -74 11 -148 14 l-135 5 -3 73 -3 73 88 -6
c48 -3 201 -10 338 -15z m-2110 -100 c484 -17 922 -33 973 -36 l92 -6 0 -75 0
-75 -82 6 c-46 3 -261 11 -478 16 -217 6 -603 17 -858 25 -255 8 -494 15 -532
15 l-70 0 0 80 0 80 38 0 c20 0 433 -13 917 -30z m-460 -215 c517 -14 1221
-36 1415 -45 118 -5 234 -10 258 -10 41 0 42 -1 42 -35 0 -31 -3 -35 -25 -35
-14 0 -135 4 -268 10 -467 18 -1752 60 -1862 60 l-55 0 0 36 0 36 148 -6 c81
-3 237 -8 347 -11z m7965 -50 c0 -31 -3 -35 -32 -40 -78 -12 -573 -75 -597
-75 -6 0 -11 15 -11 33 l0 34 173 22 c94 12 235 30 312 40 77 11 143 19 148
20 4 1 7 -15 7 -34z m-7320 -110 c217 -8 541 -19 720 -25 179 -6 331 -13 338
-15 7 -3 12 -22 12 -51 l0 -46 -312 6 c-356 8 -1516 42 -1745 52 l-153 6 0 51
0 50 373 -7 c204 -4 550 -13 767 -21z m2552 -42 c75 -33 141 -104 183 -196 51
-111 74 -246 39 -233 -9 3 -38 6 -65 6 -46 0 -49 2 -49 26 0 40 -29 143 -57
202 -34 72 -132 175 -193 204 -27 13 -49 26 -50 29 -1 13 140 -14 192 -38z
m3768 17 c0 -25 -4 -30 -32 -35 -92 -16 -1091 -136 -1143 -137 -66 -2 -137 24
-99 36 10 3 244 35 519 71 275 36 543 71 595 79 52 8 110 14 128 15 29 1 32
-2 32 -29z m-2625 0 c127 -5 367 -15 535 -21 l305 -11 342 -136 c188 -75 341
-137 340 -138 -1 -2 -209 4 -462 11 -253 8 -629 19 -835 24 -206 6 -435 14
-507 17 l-133 6 0 128 c0 69 3 130 7 134 4 4 46 5 93 1 47 -3 189 -10 315 -15z
m3625 -482 c0 -543 -5 -609 -55 -783 -41 -143 -108 -272 -208 -403 l-40 -53
-120 3 -120 3 -13 37 c-20 57 -52 223 -63 328 -23 201 -33 621 -25 960 l9 335
225 26 c124 15 254 31 290 37 36 5 77 10 93 11 l27 1 0 -502z m-1000 364 c0
-40 -41 -607 -44 -610 -3 -2 -10 15 -16 39 -17 63 -65 154 -105 197 -80 89
-213 124 -326 87 -76 -26 -167 -118 -198 -200 -41 -110 -49 -184 -53 -515 l-3
-315 -32 -31 c-27 -26 -33 -39 -33 -74 0 -36 6 -48 35 -76 27 -25 35 -41 35
-68 l0 -36 -135 0 -135 0 0 179 c0 98 -3 206 -6 240 l-7 61 71 0 c64 0 72 2
91 26 20 25 21 39 21 248 0 226 -8 289 -38 305 -9 5 -42 12 -73 15 l-57 7 -7
74 c-8 84 -3 96 62 169 23 26 43 54 43 61 0 21 -32 41 -104 66 -63 22 -66 24
-40 31 16 4 146 21 289 38 143 17 361 44 485 60 250 31 280 33 280 22z m-6950
-22 c151 -5 545 -16 875 -25 330 -8 651 -18 713 -21 l112 -6 0 -356 c0 -197
-3 -489 -7 -650 l-6 -292 -138 0 c-131 0 -138 -1 -144 -21 -12 -37 9 -44 155
-47 l140 -4 0 -79 0 -79 -185 0 -185 0 0 295 0 294 73 3 c66 3 72 5 75 26 4
27 -5 30 -88 34 l-65 3 -8 73 c-17 154 -79 283 -192 397 -121 121 -280 194
-470 215 -230 25 -458 -44 -603 -184 -95 -90 -192 -299 -192 -411 0 -63 -4
-65 -126 -65 l-82 0 -6 48 c-18 124 -63 245 -127 339 l-29 42 0 246 0 246 118
-6 c64 -3 241 -10 392 -15z m4520 -200 c201 -6 484 -15 630 -20 146 -5 374
-12 508 -16 133 -4 245 -10 247 -14 3 -4 -2 -13 -10 -20 -12 -10 -137 -9 -597
4 -321 9 -761 21 -978 27 -217 5 -399 14 -404 19 -5 5 -6 15 -3 23 4 11 28 14
124 11 65 -2 282 -8 483 -14z m260 -125 c278 -8 634 -18 793 -21 l287 -7 0
-70 0 -70 -262 7 c-1419 38 -1319 37 -1381 9 -26 -12 -75 -49 -108 -82 -75
-76 -112 -151 -117 -243 l-4 -68 -39 0 -39 0 0 280 0 280 183 0 c100 0 409 -7
687 -15z m-3964 -26 c48 -17 115 -48 150 -70 80 -51 176 -153 215 -231 32 -64
69 -192 69 -240 0 -29 0 -29 -57 -26 l-57 3 -12 65 c-41 220 -183 408 -379
501 -80 39 -41 37 71 -2z m5774 21 c0 -5 -5 -10 -10 -10 -26 0 -109 -94 -136
-153 -27 -59 -29 -70 -34 -252 l-6 -190 -33 -60 -33 -60 4 -122 5 -123 -34 0
-34 0 2 268 c1 313 11 441 38 512 42 111 113 176 205 190 28 4 54 8 59 9 4 0
7 -3 7 -9z m-3170 -74 c0 -23 -2 -23 -77 -21 -43 2 -84 3 -90 4 -7 1 -13 10
-13 21 0 19 7 20 90 20 88 0 90 -1 90 -24z m0 -436 l0 -340 -65 0 -65 0 0 340
0 340 65 0 65 0 0 -340z m1900 280 c617 -15 701 -18 707 -24 9 -8 17 -380 9
-410 l-6 -26 -563 6 c-506 6 -567 5 -610 -10 -59 -20 -107 -21 -133 -1 -12 9
-43 14 -86 15 l-68 0 0 236 0 236 163 -6 c89 -3 353 -10 587 -16z m-5765 -214
c17 -72 19 -122 5 -131 -15 -9 -12 -53 4 -62 11 -6 15 -40 18 -141 1 -72 1
-132 -2 -132 -12 0 -60 200 -75 308 -8 62 -15 161 -14 220 l1 107 24 -54 c14
-30 31 -81 39 -115z m7065 -15 c14 -26 13 -64 -2 -79 -29 -29 -88 1 -88 44 0
48 68 75 90 35z m-2634 -477 l-1 -315 -35 3 -35 3 -3 312 -2 312 22 3 c58 9
56 24 54 -318z m2710 290 c43 -27 84 -77 73 -88 -10 -10 -359 -20 -359 -10 0
24 45 78 87 105 41 26 55 30 100 26 35 -2 67 -13 99 -33z m-6832 -261 c3 -147
9 -285 13 -305 l6 -38 -47 0 -46 0 -65 88 -65 87 0 218 0 217 98 0 99 0 7
-267z m1396 -50 l0 -293 -66 0 -66 0 7 288 c5 191 11 289 19 294 6 4 32 6 58
5 l48 -2 0 -292z m3502 -203 c-4 -419 -1 -460 36 -460 37 0 42 19 42 162 l0
138 435 0 434 0 3 -143 3 -142 30 0 30 0 -1 423 0 422 43 0 43 0 0 -418 c0
-424 1 -442 36 -442 7 0 20 7 28 16 13 12 16 41 16 150 l0 134 210 0 210 0 0
-23 c0 -17 -10 -28 -35 -40 -67 -32 -88 -140 -35 -177 23 -16 51 -17 317 -13
217 4 297 9 310 18 13 10 18 26 16 58 -2 55 -22 88 -68 113 -24 13 -35 26 -35
41 l0 23 373 0 372 -1 -67 -63 c-104 -101 -248 -191 -390 -246 -130 -51 -245
-71 -463 -81 -127 -5 -1351 -8 -3110 -6 -2673 3 -2906 4 -2982 20 -184 38
-337 99 -475 190 -82 54 -196 147 -211 173 -7 12 366 14 2363 14 l2370 0 1
-107 c0 -144 8 -187 35 -191 46 -7 47 1 37 440 -5 227 -7 417 -5 421 2 4 23 7
45 5 l42 -3 -3 -405z m276 404 l22 -6 0 -244 0 -244 -110 0 -110 0 0 250 0
250 88 0 c48 0 97 -3 110 -6z m1708 -101 c-17 -102 -18 -300 -2 -388 9 -49 16
-96 16 -102 0 -10 -39 -13 -161 -13 l-162 0 6 83 c6 93 13 117 33 117 23 0 44
43 44 90 0 55 -22 90 -56 90 -29 0 -41 25 -50 106 l-7 54 173 0 173 0 -7 -37z
m168 12 c36 -28 56 -69 56 -118 0 -73 -34 -124 -107 -161 -47 -23 -53 -20 -53
24 0 28 4 40 14 40 24 0 86 65 86 90 0 33 -28 60 -62 60 -15 0 -29 6 -29 13
-6 58 48 87 95 52z m-3494 -240 l0 -165 -65 0 -65 0 0 165 0 165 65 0 65 0 0
-165z m3023 24 c3 -12 4 -26 1 -31 -3 -4 -49 -8 -103 -8 -71 0 -102 4 -117 15
-34 27 2 41 114 44 95 2 100 1 105 -20z m-67 -135 c-3 -9 -6 -24 -6 -35 0 -16
-7 -19 -45 -19 -45 0 -45 0 -45 35 l0 35 51 0 c43 0 50 -3 45 -16z m443 -250
c37 -15 58 -38 43 -48 -4 -2 -124 -5 -267 -7 -227 -3 -260 -1 -263 12 -3 18
24 45 53 52 11 2 104 5 207 6 150 1 196 -2 227 -15z"/>
<path d="M3434 7766 c-237 -110 -162 -460 104 -483 49 -4 65 -1 112 24 172 90
182 325 20 434 -81 54 -156 62 -236 25z m166 -71 c59 -30 110 -112 110 -175 0
-68 -64 -150 -128 -165 -99 -21 -223 90 -222 200 1 30 34 97 62 123 46 42 116
48 178 17z"/>
<path d="M3485 7651 c-80 -33 -85 -154 -7 -210 88 -62 172 -20 172 87 0 54
-28 97 -77 117 -39 17 -58 18 -88 6z"/>
<path d="M2513 7659 c-24 -16 -45 -40 -48 -52 -3 -12 -4 -107 -3 -212 3 -167
5 -190 19 -193 10 -2 49 16 88 39 l71 43 0 176 c0 120 -4 183 -13 200 -18 37
-62 37 -114 -1z"/>
<path d="M1013 7565 c-143 -39 -258 -136 -298 -253 l-12 -35 -89 -1 c-102 -2
-144 -19 -207 -82 -62 -62 -90 -201 -46 -224 25 -14 49 2 49 34 0 43 22 97 53
133 62 70 152 91 236 53 52 -24 46 -24 65 -4 9 9 16 32 16 55 0 53 28 105 87
160 97 91 213 123 346 96 141 -29 246 -114 289 -234 18 -50 20 -72 14 -166 -6
-108 -6 -108 19 -119 21 -9 33 -8 69 10 130 66 277 -10 301 -155 l7 -43 -764
-2 -763 -3 -3 -24 c-2 -13 2 -28 10 -32 20 -13 1545 -11 1569 1 29 16 27 128
-5 196 -49 106 -173 173 -294 161 l-59 -6 -5 90 c-5 75 -11 100 -39 157 -57
117 -164 203 -294 237 -73 18 -182 18 -252 0z"/>
</g>
</svg>
